<svg viewBox="0 0 100 37" xmlns="http://www.w3.org/2000/svg" fill="#1b1a18">
  <path d="M29.4343 28.329C28.2661 30.6324 26.197 32.2805 23.2864 33.2138C21.9202 33.6407 20.6827 33.8591 19.6135 33.8591C12.7528 33.8591 9.11946 26.4724 7.55526 22.0643C6.09006 17.6164 3.74375 6.91368 13.4359 3.7267C14.8021 3.28985 16.0396 3.08136 17.1088 3.08136C20.1382 3.08136 25.7218 4.62024 29.167 14.9357C30.454 18.7581 31.543 24.179 29.4244 28.329M18.2374 0.5C12.6241 0.5 7.90176 2.44595 4.58526 6.13928C1.64495 9.39576 0.03125 13.7841 0.03125 18.4802C0.03125 23.1762 1.64495 27.5844 4.58526 30.8508C7.90176 34.5441 12.6241 36.5 18.2374 36.5C23.8507 36.5 28.6027 34.5441 31.939 30.8508C34.8892 27.5745 36.5128 23.1762 36.5128 18.4702C36.5128 13.7642 34.8892 9.38583 31.9489 6.12935C28.6126 2.44595 23.8804 0.5 18.2374 0.5Z"/>
  <path d="M77.3501 36.5C82.6169 36.5 88.0916 34.7427 91.9922 31.794L92.0813 31.7344L93.4772 35.259H99.9716L99.932 35.1498C99.9122 35.0902 99.4172 33.7697 98.6747 31.7543L96.2294 25.152C93.6257 18.1128 90.3983 9.35604 90.3686 9.29647C89.1113 5.97049 86.369 3.32956 82.8644 2.04881C81.3002 1.47297 79.6469 1.11555 77.9639 1.22476C75.875 1.36376 73.8554 2.16795 72.2516 3.48842C70.8062 4.66988 69.6181 6.29812 67.7965 6.96332C65.6086 7.75758 63.3217 6.7449 61.3912 5.762C60.8665 5.49393 60.3715 5.18615 59.9062 4.83866C59.3518 4.4316 58.8172 3.99476 58.2529 3.5877C56.5897 2.3963 53.8672 1.24462 51.6991 1.92967C49.4023 2.64451 47.4718 4.66988 46.2046 6.13927C46.1254 6.23855 46.0363 6.33784 45.9571 6.43712L45.8185 6.6059V1.74103H39.4627V35.2689H45.8185V11.5701C45.8185 9.64396 48.6895 6.06977 50.4022 5.86128C51.2932 5.56343 52.2139 6.05984 52.9168 6.56619C54.6592 7.83701 55.9759 9.63403 57.9361 10.6566C58.4905 10.9545 59.0845 11.1828 59.6983 11.3218C60.1438 11.4211 60.5992 11.4807 61.0546 11.4906H61.1437C63.2326 11.4906 65.074 10.3886 66.856 9.32626C67.1035 9.17733 70.4201 7.02289 72.0338 6.17898C77.0135 3.54799 82.3595 6.69526 84.6068 11.6892L85.1414 13.0097L84.9434 12.9004C82.0526 11.3417 78.9737 10.5177 76.0334 10.5177C68.1529 10.5177 62.2129 16.2066 62.2129 23.7521C62.2129 33.1542 70.3606 36.4901 77.3402 36.4901M77.0927 13.5359C79.2905 13.5359 81.8447 14.1613 84.6959 15.4024C85.6364 15.8194 86.3393 16.5441 86.7155 17.5072L89.6558 25.0626C89.9231 25.7377 90.0914 26.7306 89.6558 27.3461C86.8244 31.4664 82.4486 33.9286 77.954 33.9286C71.2516 33.9286 68.2421 28.8254 68.2421 23.7719C68.2421 17.4675 71.6278 13.5458 77.0729 13.5458"/>
</svg>
